<svg id="Capa_1" enable-background="new 0 0 512 512" height="512" viewBox="0 0 512 512" width="512" xmlns="http://www.w3.org/2000/svg"><g><g><g><g><g><g><g><path d="m510.82 231.262c.781 8.141 1.18 16.393 1.18 24.738 0 141.385-114.615 256-256 256-101.691 0-189.534-59.293-230.842-145.193l-24.325-90.004c-.552-6.862-.833-13.8-.833-20.803 0-141.385 114.615-256 256-256 100.134 0 186.84 57.491 228.911 141.265z" fill="#64e1dc"/></g></g></g></g></g></g><path d="m512 256c0-8.356-.4-16.619-1.183-24.77-.667-6.95-9.299-27.071-9.299-27.071l-71.034-71.034-168.484 8.5 17.379 17.379-35.882 6.145-19.085-19.085-199.254 220.743 120.035 120.035c33.53 16.124 71.114 25.158 110.807 25.158 141.385 0 256-114.615 256-256z" fill="#00c8c8"/><g><path d="m435 217.862c0-50.364-40.828-91.192-91.192-91.192-41.807 0-77.041 28.133-87.808 66.5-10.767-38.367-46.002-66.5-87.808-66.5-50.364 0-91.192 40.828-91.192 91.192 0 89.337 179 197.409 179 197.409s179-105.616 179-197.409z" fill="#ff73a5"/></g><g><g><g fill="#ff468c"><path d="m255.991 193.139c0-.001 0-.001 0 0z"/><path d="m343.808 126.67c-41.807 0-77.041 28.133-87.808 66.499.008.028.016.056 0 0v222.101s179-105.615 179-197.409c0-50.363-40.828-91.191-91.192-91.191z"/><path d="m255.991 193.139c.001.002.003.011.009.03-.004-.013-.007-.026-.009-.03z"/></g></g></g><g><path d="m309.237 303.82h-91.938v-5.207h85.239c7.582 0 13.729-6.146 13.729-13.729 0-7.582-6.147-13.728-13.729-13.728h-79.951s.003 5.619 0 5.643c-1.426 9.325-11.284 16.499-20.001 16.958-.343.018-.688.027-1.035.027h-42.965v-8.93c.012-.011-.012-.018 0-.029h42.464c8.115 0 14.678-6.71 14.406-14.909-.26-7.821-6.919-13.918-14.744-13.918h-81.059c-14.243 0-26.519 8.55-31.987 20.783-.005.011-.016.018-.028.018 0 0-44.341 0-86.804 0 2.575 32.028 11.046 62.392 24.325 90.006h64.345c.011 0 .021.006.026.016 6.442 11.452 18.242 19.486 32.005 20.703v.17h27.935 55.055 55.964c5.987 0 10.854-4.797 10.966-10.758.115-6.147-5.106-11.177-11.253-11.177h-56.982v-4.318h84.588c7.138 0 12.924-5.786 12.924-12.923 0-7.137-5.786-12.923-12.923-12.923h-76.769v-4.319h98.525c7.748 0 13.998-6.419 13.72-14.229-.264-7.438-6.604-13.227-14.048-13.227zm-150.652-10.009v-.013c.002.004.005.008 0 .013z" fill="#ffdecf"/></g><g><path d="m25.158 366.807h64.345c.011 0 .021.006.026.016 6.442 11.452 18.242 19.486 32.005 20.703v.17h27.935 55.055 55.964c5.987 0 10.854-4.797 10.966-10.758.115-6.146-5.106-11.177-11.253-11.177h-56.982v-4.318h84.588c7.138 0 12.924-5.786 12.924-12.923s-5.786-12.923-12.924-12.923h-76.767v-2.426h-199.19c3.659 11.587 8.109 22.825 13.308 33.636z" fill="#ffbeaa"/></g><g><path d="m484.907 141.257c-27.212 0-48.401 0-48.401 0-.011 0-.021-.006-.027-.016-6.442-11.452-18.242-19.487-32.004-20.703v-.17h-27.935-55.055-55.964c-5.987 0-10.855 4.798-10.966 10.758-.115 6.146 5.106 11.177 11.253 11.177h56.982v4.318h-84.588c-7.138 0-12.924 5.786-12.924 12.923 0 7.137 5.786 12.923 12.924 12.923h76.766v4.319l-98.525-.001c-7.749 0-13.998 6.419-13.72 14.229.264 7.439 6.604 13.228 14.049 13.228h91.938v5.206h-85.239c-7.582 0-13.729 6.146-13.729 13.728 0 7.582 6.146 13.728 13.729 13.728h79.951s-.004-5.619 0-5.643c1.427-9.324 11.284-16.498 20.001-16.958.343-.018.688-.027 1.035-.027h42.965v8.93c-.012.011.012.019 0 .029h-42.464c-8.115 0-14.678 6.71-14.406 14.909.26 7.821 6.919 13.917 14.744 13.917l81.059.001c14.243 0 26.519-8.55 31.987-20.783.005-.011.016-.018.028-.018h72.448c-3.077-32.1-12.084-62.471-25.912-90.004zm-117.482 72.996v.013c-.003-.004-.006-.008 0-.013z" fill="#cc6d58"/></g><g><path d="m314.969 174.296v2.492h-98.525c-7.749 0-13.998 6.419-13.72 14.229.264 7.439 6.604 13.228 14.049 13.228h91.938v5.207h-85.239c-7.582 0-13.729 6.146-13.729 13.728s6.146 13.728 13.729 13.728h79.951s-.004-5.619 0-5.643c1.427-9.324 11.284-16.498 20.001-16.958.343-.018.688-.027 1.035-.027h42.965v8.93c-.012.011.012.019 0 .029h-42.464c-8.115 0-14.678 6.71-14.406 14.909.26 7.821 6.918 13.917 14.744 13.917h81.059c14.243 0 26.519-8.55 31.987-20.783.005-.011.016-.018.028-.018h72.448c-1.892-19.73-6.031-38.803-12.145-56.968zm52.456 39.97v-.013z" fill="#aa594b"/></g><g><path d="m254.556 131.126c-.036 1.938.459 3.763 1.346 5.356v-10.41c-.826 1.507-1.312 3.225-1.346 5.054z" fill="#cc6d58"/></g></g></svg>